<svg width="16" height="16" viewBox="0 0 16 16" fill="none" xmlns="http://www.w3.org/2000/svg">
<path d="M8.96125 1.11568C8.89961 1.06443 8.82656 1.02876 8.74824 1.01166C8.66993 0.994561 8.58865 0.996543 8.51127 1.01744C8.43388 1.03833 8.36265 1.07752 8.30359 1.13171C8.24452 1.1859 8.19935 1.2535 8.17188 1.3288L6.79688 5.10443L5.28687 3.6413C5.23616 3.59212 5.17561 3.55424 5.10919 3.53016C5.04278 3.50608 4.97201 3.49634 4.90157 3.5016C4.83112 3.50686 4.76258 3.52698 4.70047 3.56065C4.63837 3.59432 4.5841 3.64076 4.54125 3.69693C3.1875 5.47068 2.5 7.25505 2.5 9.00005C2.5 10.4587 3.07946 11.8577 4.11091 12.8891C5.14236 13.9206 6.54131 14.5001 8 14.5001C9.45869 14.5001 10.8576 13.9206 11.8891 12.8891C12.9205 11.8577 13.5 10.4587 13.5 9.00005C13.5 5.28443 10.3256 2.25005 8.96125 1.11568ZM11.4931 9.5838C11.3635 10.308 11.0151 10.9751 10.4948 11.4952C9.9745 12.0154 9.30734 12.3637 8.58313 12.4932C8.55567 12.4979 8.52786 12.5002 8.5 12.5001C8.37458 12.5 8.25375 12.4529 8.16148 12.3679C8.06921 12.283 8.01223 12.1664 8.00185 12.0414C7.99146 11.9165 8.02843 11.7921 8.10542 11.6931C8.18242 11.5941 8.2938 11.5277 8.4175 11.5069C9.45312 11.3326 10.3319 10.4538 10.5075 9.4163C10.5297 9.28552 10.603 9.16891 10.7112 9.09214C10.8193 9.01537 10.9536 8.98471 11.0844 9.00693C11.2152 9.02914 11.3318 9.1024 11.4085 9.21058C11.4853 9.31876 11.516 9.45302 11.4937 9.5838H11.4931Z" fill="#D42620"/>
</svg>
